<svg width="25" height="27" viewBox="0 0 25 27" fill="none" xmlns="http://www.w3.org/2000/svg">
<path fill-rule="evenodd" clip-rule="evenodd" d="M17.9064 25.2074H7.47159C3.63863 25.2074 0.698131 23.823 1.53337 18.2509L2.50591 10.6994C3.02078 7.91911 4.79424 6.85504 6.3503 6.85504H19.0734C20.6524 6.85504 22.3228 7.99921 22.9178 10.6994L23.8903 18.2509C24.5997 23.1937 21.7393 25.2074 17.9064 25.2074Z" stroke="white" stroke-width="2" stroke-linecap="round" stroke-linejoin="round"/>
<path d="M18.0777 6.58044C18.0777 3.59785 15.6598 1.17998 12.6772 1.17998V1.17998C11.241 1.17389 9.86148 1.74018 8.84375 2.75362C7.82601 3.76707 7.25389 5.14417 7.25391 6.58044H7.25391" stroke="white" stroke-width="2" stroke-linecap="round" stroke-linejoin="round"/>
<path d="M16.3839 12.2097H16.3267" stroke="white" stroke-width="2" stroke-linecap="round" stroke-linejoin="round"/>
<path d="M9.09678 12.2097H9.03957" stroke="white" stroke-width="2" stroke-linecap="round" stroke-linejoin="round"/>
</svg>
